<svg width="50" height="42" viewBox="0 0 50 42" fill="none" xmlns="http://www.w3.org/2000/svg">
<path d="M40.5 12H47.5C48.88 12 50 10.88 50 9.5C50 8.12 48.88 7 47.5 7H40.5C39.12 7 38 8.12 38 9.5C38 10.88 39.12 12 40.5 12Z" fill="#111111"/>
<path d="M15.5 7H2.5C1.12 7 0 8.12 0 9.5C0 10.88 1.12 12 2.5 12H15.5C16.88 12 18 10.88 18 9.5C18 8.12 16.88 7 15.5 7Z" fill="#111111"/>
<path d="M9.5 30H2.5C1.12 30 0 31.12 0 32.5C0 33.88 1.12 35 2.5 35H9.5C10.88 35 12 33.88 12 32.5C12 31.12 10.88 30 9.5 30Z" fill="#111111"/>
<path d="M47.5 30H34.5C33.12 30 32 31.12 32 32.5C32 33.88 33.12 35 34.5 35H47.5C48.88 35 50 33.88 50 32.5C50 31.12 48.88 30 47.5 30Z" fill="#111111"/>
<path d="M18.5 23C13.25 23 9 27.25 9 32.5C9 37.75 13.25 42 18.5 42C23.75 42 28 37.75 28 32.5C28 27.25 23.75 23 18.5 23ZM18.5 37C16.02 37 14 34.98 14 32.5C14 30.02 16.02 28 18.5 28C20.98 28 23 30.02 23 32.5C23 34.98 20.98 37 18.5 37Z" fill="#00C569"/>
<path d="M31.5 0C26.25 0 22 4.25 22 9.5C22 14.75 26.25 19 31.5 19C36.75 19 41 14.75 41 9.5C41 4.25 36.75 0 31.5 0ZM31.5 14C29.02 14 27 11.98 27 9.5C27 7.02 29.02 5 31.5 5C33.98 5 36 7.02 36 9.5C36 11.98 33.98 14 31.5 14Z" fill="#00C569"/>
</svg>
