<svg width="50" height="50" viewBox="0 0 50 50" fill="none" xmlns="http://www.w3.org/2000/svg">
<path d="M26.82 27.62L35.84 22.73C37.01 22 37.37 20.46 36.64 19.29C35.91 18.12 34.37 17.76 33.2 18.49L24.18 23.38C23.01 24.11 22.65 25.65 23.38 26.82C24.11 28 25.65 28.35 26.82 27.62Z" fill="#00C569"/>
<path d="M25 0C11.19 0 0 11.19 0 25C0 38.81 11.19 50 25 50C38.81 50 50 38.81 50 25C50 11.19 38.81 0 25 0ZM25 45C13.97 45 5 36.03 5 25C5 13.97 13.97 5 25 5C36.03 5 45 13.97 45 25C45 36.03 36.03 45 25 45Z" fill="#111111"/>
<path d="M16.82 13.7C15.8 12.77 14.22 12.83 13.29 13.85C12.36 14.87 12.42 16.45 13.44 17.38L23.81 27.34C24.83 28.27 26.41 28.21 27.34 27.19C28.27 26.17 28.21 24.59 27.19 23.66L16.82 13.7Z" fill="#111111"/>
</svg>
