<svg width="50" height="50" viewBox="0 0 50 50" fill="none" xmlns="http://www.w3.org/2000/svg">
<path d="M41.92 5H40V2.5C40 1.12 38.88 0 37.5 0C36.12 0 35 1.12 35 2.5V5H15V2.5C15 1.12 13.88 0 12.5 0C11.12 0 10 1.12 10 2.5V5H8.07999C3.61999 5 0 8.62 0 13.08V41.91C0 46.37 3.61999 49.99 8.07999 49.99H41.91C46.37 49.99 49.99 46.37 49.99 41.91V13.09C50 8.62 46.38 5 41.92 5ZM45 41.92C45 43.62 43.62 45 41.92 45H8.09C6.39 45 5.01001 43.62 5.01001 41.92V13.09C5.01001 11.39 6.39 10.01 8.09 10.01H10V12.51C10 13.89 11.12 15.01 12.5 15.01C13.88 15.01 15 13.89 15 12.51V10H35V12.5C35 13.88 36.12 15 37.5 15C38.88 15 40 13.88 40 12.5V10H41.92C43.62 10 45 11.38 45 13.08V41.92Z" fill="#111111"/>
<path d="M25 28C26.3807 28 27.5 26.8807 27.5 25.5C27.5 24.1193 26.3807 23 25 23C23.6193 23 22.5 24.1193 22.5 25.5C22.5 26.8807 23.6193 28 25 28Z" fill="#111111"/>
<path d="M25 37C26.3807 37 27.5 35.8807 27.5 34.5C27.5 33.1193 26.3807 32 25 32C23.6193 32 22.5 33.1193 22.5 34.5C22.5 35.8807 23.6193 37 25 37Z" fill="#111111"/>
<path d="M16 37C17.3807 37 18.5 35.8807 18.5 34.5C18.5 33.1193 17.3807 32 16 32C14.6193 32 13.5 33.1193 13.5 34.5C13.5 35.8807 14.6193 37 16 37Z" fill="#111111"/>
<path d="M34 28C35.3807 28 36.5 26.8807 36.5 25.5C36.5 24.1193 35.3807 23 34 23C32.6193 23 31.5 24.1193 31.5 25.5C31.5 26.8807 32.6193 28 34 28Z" fill="#00C569"/>
<path d="M34 37C35.3807 37 36.5 35.8807 36.5 34.5C36.5 33.1193 35.3807 32 34 32C32.6193 32 31.5 33.1193 31.5 34.5C31.5 35.8807 32.6193 37 34 37Z" fill="#00C569"/>
</svg>
