<svg width="50" height="50" viewBox="0 0 50 50" fill="none" xmlns="http://www.w3.org/2000/svg">
<path d="M41.92 0H8.09C3.63 0 0.0100098 3.61999 0.0100098 8.07999V41.91C0.0100098 46.37 3.63 49.99 8.09 49.99H41.92C46.38 49.99 50 46.37 50 41.91V8.07999C50 3.61999 46.38 0 41.92 0ZM45 41.92C45 43.62 43.62 45 41.92 45H8.09C6.39 45 5.01001 43.62 5.01001 41.92V8.09C5.01001 6.39 6.39 5.01001 8.09 5.01001H41.92C43.62 5.01001 45 6.39 45 8.09V41.92Z" fill="#111111"/>
<path d="M37.5 12H12.5C11.12 12 10 13.12 10 14.5C10 15.88 11.12 17 12.5 17H37.5C38.88 17 40 15.88 40 14.5C40 13.12 38.88 12 37.5 12Z" fill="#111111"/>
<path d="M37.5 23H12.5C11.12 23 10 24.12 10 25.5C10 26.88 11.12 28 12.5 28H37.5C38.88 28 40 26.88 40 25.5C40 24.12 38.88 23 37.5 23Z" fill="#111111"/>
<path d="M33.5 39H12.5C11.12 39 10 37.88 10 36.5C10 35.12 11.12 34 12.5 34H33.5C34.88 34 36 35.12 36 36.5C36 37.88 34.88 39 33.5 39Z" fill="#00C569"/>
</svg>
