<svg width="50" height="50" viewBox="0 0 50 50" fill="none" xmlns="http://www.w3.org/2000/svg">
<path d="M41.92 9H38.25L37.26 5.01999C36.52 2.06999 33.87 0 30.83 0H19.17C16.13 0 13.48 2.06999 12.74 5.01999L11.75 9H8.08C3.62 9 0 12.62 0 17.08V41.92C0 46.38 3.62 50 8.08 50H41.92C46.38 50 50 46.38 50 41.92V17.08C50 12.62 46.38 9 41.92 9ZM45 41.92C45 43.62 43.62 45 41.92 45H8.08C6.38 45 5 43.62 5 41.92V17.08C5 15.38 6.38 14 8.08 14H13.24C14.65 14 15.89 13.04 16.23 11.66L17.52 6.51001C17.74 5.62001 18.54 5 19.45 5H30.54C31.45 5 32.25 5.62001 32.47 6.51001L33.76 11.66C34.1 13.03 35.34 14 36.75 14H41.91C43.61 14 44.99 15.38 44.99 17.08V41.92H45Z" fill="#111111"/>
<path d="M39.5 22C40.8807 22 42 20.8807 42 19.5C42 18.1193 40.8807 17 39.5 17C38.1193 17 37 18.1193 37 19.5C37 20.8807 38.1193 22 39.5 22Z" fill="#111111"/>
<path d="M25 22C28.86 22 32 25.14 32 29C32 32.86 28.86 36 25 36C21.14 36 18 32.86 18 29C18 25.14 21.14 22 25 22ZM25 17C18.37 17 13 22.37 13 29C13 35.63 18.37 41 25 41C31.63 41 37 35.63 37 29C37 22.37 31.63 17 25 17Z" fill="#00C569"/>
</svg>
