<svg width="50" height="45" viewBox="0 0 50 45" fill="none" xmlns="http://www.w3.org/2000/svg">
<path d="M35.45 0.190002C34.94 0.190002 34.42 0.34 33.95 0.68C24.14 7.72 12 9.23 4.81 9.23C4.03 9.23 3.30997 9.21 2.65997 9.18C2.61997 9.18 2.57998 9.18 2.53998 9.18C1.13998 9.18 0 10.31 0 11.72V22.29C0 23.7 1.13998 24.83 2.53998 24.83C2.57998 24.83 2.61997 24.83 2.65997 24.83C3.30997 24.8 4.03 24.78 4.81 24.78C4.84 24.78 4.87997 24.78 4.90997 24.78L6.59998 41.18C6.82998 43.35 8.66003 45 10.84 45H17.28C19.8 45 21.77 42.82 21.51 40.31L20.13 26.87C24.77 28.17 29.59 30.2 33.95 33.33C34.42 33.67 34.94 33.82 35.45 33.82C36.77 33.82 38 32.79 38 31.28V2.73C38 1.22 36.77 0.190002 35.45 0.190002ZM16.46 40H11.51L9.96002 25.02C11.54 25.16 13.23 25.38 14.98 25.69L16.46 40ZM33 26.79C22.1 20.59 10.17 19.8 5 19.78V14.23C10.17 14.21 22.1 13.42 33 7.22V26.79Z" fill="#111111"/>
<path d="M41 11.01C41 12.02 41.6 12.92 42.53 13.31C43.98 13.91 45 15.34 45 17.01C45 18.68 43.98 20.11 42.53 20.71C41.6 21.09 41 22 41 23.01C41 24.76 42.77 26.01 44.39 25.35C47.68 24.01 50 20.78 50 17.01C50 13.24 47.68 10.01 44.39 8.67C42.77 8 41 9.26 41 11.01Z" fill="#00C569"/>
</svg>
